<?xml version="1.0" standalone="no"?>
<!DOCTYPE svg PUBLIC "-//W3C//DTD SVG 20010904//EN"
 "http://www.w3.org/TR/2001/REC-SVG-20010904/DTD/svg10.dtd">
<svg version="1.0" xmlns="http://www.w3.org/2000/svg"
 width="303.000000pt" height="303.000000pt" viewBox="0 0 303.000000 303.000000"
 preserveAspectRatio="xMidYMid meet">
<metadata>
Created by potrace 1.11, written by Peter Selinger 2001-2013
</metadata>
<g transform="translate(0.000000,303.000000) scale(0.100000,-0.100000)"
fill="#000000" stroke="none">
<path d="M1895 2634 c-88 -35 -167 -67 -175 -70 -71 -27 -178 -69 -193 -76
-15 -8 -4 -23 79 -108 l97 -99 -1 -208 c0 -114 -1 -220 -1 -235 l-1 -28 -175
0 -175 0 0 325 c0 342 -2 363 -46 410 -26 27 -113 80 -158 95 -107 35 -310 2
-598 -98 -244 -85 -357 -154 -406 -247 -23 -45 -20 -117 8 -158 21 -30 125
-102 175 -122 48 -18 138 -31 209 -31 44 1 76 -3 77 -9 0 -5 2 -45 3 -87 l1
-78 -72 0 c-62 0 -80 -4 -130 -31 -247 -134 -369 -321 -304 -465 25 -55 59
-87 149 -139 112 -64 228 -78 321 -39 18 8 34 14 35 14 4 0 -2 -109 -8 -127
-10 -30 -56 -62 -159 -112 -88 -43 -88 -43 -65 -59 13 -9 105 -73 204 -143
100 -70 216 -151 258 -179 l77 -52 52 22 c187 79 306 177 346 284 28 76 29 88
30 374 l1 242 176 -2 176 -3 2 -220 c3 -235 9 -270 62 -361 48 -85 171 -180
324 -251 41 -19 93 -44 116 -55 l41 -20 244 103 c134 56 252 108 261 114 14 9
3 19 -75 69 -51 31 -117 72 -147 89 -89 52 -94 70 -98 324 l-3 213 133 0 134
0 137 190 c76 105 138 201 139 214 l2 24 28 -20 28 -19 0 36 c0 31 -3 36 -17
30 -33 -12 -36 -10 -40 25 -8 72 -48 132 -117 179 -36 24 -88 52 -116 61 -115
39 -264 -8 -300 -95 -5 -12 -9 44 -9 140 -1 175 -11 231 -56 314 -34 63 -82
107 -177 166 -108 66 -115 66 -303 -11z m-1281 -468 c-1 -31 -4 -59 -7 -63 -9
-9 -47 59 -47 85 0 20 35 46 50 37 3 -2 4 -28 4 -59z m1863 -261 c21 0 29 -5
31 -22 3 -17 10 -23 28 -23 29 0 32 -25 5 -40 -11 -5 -40 -10 -65 -10 l-46 0
0 63 c0 43 3 57 10 47 5 -8 22 -15 37 -15z m-1864 -547 c-1 -18 -2 -35 -2 -38
-1 -7 -98 -3 -118 4 -36 14 40 62 102 65 16 1 20 -5 18 -31z"/>
<path d="M2991 2401 l-33 -18 36 -21 36 -21 0 39 c0 22 -1 40 -2 40 -2 -1 -18
-9 -37 -19z"/>
</g>
</svg>
